PathFileType	3	(X/Y/Z)	C:\Users\koon_\Desktop\
DataRate	CameraRate	NumFrames	NumMarkers	Units	OrigDataRate	OrigDataStartFrame	OrigNumFrames
100.0	100.0	8	27	mm	100.0	2649	3531	
Frame#	Time	get:LFHD			get:RFHD			get:LBHD			get:RBHD			get:C7			get:T10			get:CLAV			get:STRN			get:RBAK			get:LSHO			get:LUPA			get:LELB			get:LFRA			get:LWRA			get:LWRB			get:LFIN			get:RSHO			get:RUPA			get:RELB			get:RFRA			get:RWRA			get:RWRB			get:RFIN			get:LASI			get:RASI			get:LPSI			get:RPSI			
		X1	Y1	Z1	X2	Y2	Z2	X3	Y3	Z3	X4	Y4	Z4	X5	Y5	Z5	X6	Y6	Z6	X7	Y7	Z7	X8	Y8	Z8	X9	Y9	Z9	X10	Y10	Z10	X11	Y11	Z11	X12	Y12	Z12	X13	Y13	Z13	X14	Y14	Z14	X15	Y15	Z15	X16	Y16	Z16	X17	Y17	Z17	X18	Y18	Z18	X19	Y19	Z19	X20	Y20	Z20	X21	Y21	Z21	X22	Y22	Z22	X23	Y23	Z23	X24	Y24	Z24	X25	Y25	Z25	X26	Y26	Z26	X27	Y27	Z27	
2649	26.48	48.914429	1527.8702	-16.058119	-96.633652	1532.697	-36.377525	66.468315	1526.4512	-153.3829	-84.583313	1525.2463	-170.48595	-31.437788	1353.2804	-198.89449	2.1912365	1147.3115	-250.76196	-16.632957	1242.6044	-21.15107	0.23743218	1088.5707	11.309752	-105.02088	1266.379	-233.6241	104.13033	1398.411	-122.43645	181.75049	1199.9795	-81.284088	246.1803	1094.0667	-131.56808	207.77068	1037.4587	-57.842346	151.14688	877.49896	-31.70717	222.09239	866.25287	-52.284622	186.84991	795.76678	-30.542521	-160.87575	1325.2875	-106.93252	-218.91295	1202.5593	-98.347496	-245.99545	989.16095	-153.0896	-210.8941	862.88049	-55.439522	-191.57425	765.01624	-36.362469	-247.72371	768.80865	-85.738136	-216.44948	690.90503	-40.0993	134.14542	896.88678	-60.832859	-155.00981	911.28003	-55.228313	39.929554	929.31744	-242.92351	-47.462364	929.52002	-245.45717
2650	26.49	48.700012	1527.8119	-15.5524	-96.70816	1532.6642	-36.373371	66.571869	1526.5184	-152.84724	-84.494446	1525.2632	-170.15128	-31.174461	1352.7377	-198.87093	2.1099589	1146.457	-250.82419	-16.343962	1242.2128	-21.014368	0.27533585	1088.0927	11.446014	-105.09594	1266.1755	-233.74382	105.37447	1396.5818	-123.34216	182.28011	1198.0662	-81.799461	246.15112	1091.8276	-132.02965	208.0218	1035.4163	-57.982777	151.28642	875.4718	-31.473059	222.27621	864.09631	-52.105549	187.3273	793.8006	-30.141235	-160.72281	1325.1466	-106.87254	-218.82903	1202.4655	-98.418915	-245.81425	989.09729	-153.16286	-210.96164	862.79883	-55.497406	-191.6852	764.89667	-36.484226	-247.86137	768.71954	-85.865593	-216.53693	690.75647	-40.214203	134.09085	896.49286	-60.780712	-155.12407	911.22534	-55.355625	40.008095	929.32141	-243.037	-47.504272	929.46063	-245.36984
2651	26.5	48.501877	1527.7369	-15.044204	-96.903366	1532.6201	-36.147675	66.629654	1526.5525	-152.30951	-84.393234	1525.3093	-169.93503	-30.905376	1352.0765	-198.94804	2.0292225	1145.4519	-250.94283	-15.983716	1241.7723	-20.767361	0.27957392	1087.5966	11.609162	-105.21234	1265.8564	-233.78551	106.70305	1394.5405	-124.39532	182.93681	1195.9916	-82.342766	246.20222	1089.415	-132.56038	208.30896	1033.2299	-58.162292	151.39514	873.2923	-31.32221	222.52174	862.08716	-51.769161	187.59238	791.7287	-29.676729	-160.57249	1324.9758	-106.91363	-218.75885	1202.3375	-98.52742	-245.60078	988.99548	-153.21573	-211.01956	862.66211	-55.528606	-191.81731	764.75562	-36.591194	-247.99478	768.66553	-85.973152	-216.73495	690.64227	-40.314384	134.00684	896.10046	-60.724686	-155.25999	911.16248	-55.432812	40.206173	929.47296	-243.29773	-47.486576	929.52753	-245.48224
2652	26.51	48.313236	1527.682	-14.491888	-97.105347	1532.588	-35.934708	66.677849	1526.5662	-151.74748	-84.319939	1525.3486	-169.67395	-30.73612	1351.3529	-198.88535	1.9194864	1144.4507	-251.04048	-15.66487	1241.3207	-20.612665	0.2954905	1087.1235	11.754827	-105.3791	1265.5288	-233.80266	108.06739	1392.3108	-125.46268	183.76947	1193.7313	-83.030136	246.38324	1086.7798	-133.29416	208.56116	1030.9835	-58.593929	151.42273	871.06323	-31.154276	222.70007	859.9552	-51.294731	187.74567	789.55939	-29.105955	-160.39194	1324.825	-106.91692	-218.6696	1202.2611	-98.575836	-245.39839	988.92255	-153.3446	-211.07855	862.54749	-55.556599	-192.01575	764.54688	-36.61528	-248.0788	768.56122	-86.00473	-216.93811	690.4895	-40.45174	133.86259	895.65222	-60.571751	-155.40962	911.12683	-55.497417	40.181465	929.41156	-243.15244	-47.476055	929.5553	-245.45834
2653	26.52	48.118076	1527.6241	-14.00967	-97.257835	1532.5514	-35.67165	66.729614	1526.5958	-151.22328	-84.251907	1525.3982	-169.42572	-30.534248	1350.6122	-198.86194	1.8195844	1143.2108	-251.06496	-15.24297	1240.907	-20.424835	0.30531943	1086.5765	11.927746	-105.58771	1265.194	-233.85872	109.60726	1389.8601	-126.67873	184.77679	1191.2562	-83.931206	246.66277	1083.9258	-134.19939	208.97122	1028.5516	-58.944584	151.47458	868.68329	-30.945925	222.9455	857.67517	-50.749294	187.82066	787.25372	-28.462013	-160.20432	1324.6549	-106.87312	-218.58655	1202.1274	-98.627419	-245.20801	988.81232	-153.44795	-211.11603	862.42749	-55.597782	-192.1832	764.40656	-36.620617	-248.23705	768.47845	-86.07708	-217.17293	690.34613	-40.6418	133.74658	895.23615	-60.391327	-155.59225	911.04675	-55.653328	40.128559	929.32556	-242.94472	-47.448437	929.64801	-245.50578
2654	26.53	47.886147	1527.5448	-13.57621	-97.391075	1532.4231	-35.660168	66.736809	1526.5763	-150.72632	-84.201729	1525.4644	-169.22026	-30.35445	1349.8723	-198.99048	1.6927311	1141.9293	-251.15198	-14.788806	1240.4093	-20.25057	0.25287673	1086.0228	12.142052	-105.79225	1264.889	-233.99878	111.23875	1387.1786	-127.81268	185.85445	1188.5648	-84.793327	247.00858	1080.8324	-135.23036	209.44238	1025.9807	-59.501492	151.53525	866.21228	-30.688679	223.05424	854.94879	-50.296532	187.93867	784.75537	-27.785988	-160.00809	1324.493	-106.85054	-218.51825	1202.0063	-98.652245	-245.07907	988.77405	-153.57367	-211.23323	862.30304	-55.666618	-192.31813	764.26099	-36.805435	-248.39244	768.40967	-86.268425	-217.39777	690.19299	-40.793056	133.59341	894.79242	-60.163059	-155.7881	910.95605	-55.762768	40.109543	929.25958	-242.64615	-47.413349	929.68988	-245.51888
2655	26.54	47.664772	1527.483	-13.156379	-97.569946	1532.4122	-35.445557	66.728912	1526.5731	-150.27621	-84.217773	1525.4908	-168.81656	-30.196077	1349.1996	-199.27728	1.525473	1140.5804	-251.19763	-14.265487	1239.8949	-20.133219	0.22632398	1085.4612	12.207541	-105.98101	1264.5132	-234.10823	113.09643	1384.3199	-129.0757	187.13167	1185.653	-86.033737	247.39798	1077.5417	-136.308	210.01634	1023.2165	-60.118557	151.71486	863.6001	-30.344885	223.32164	852.18317	-49.770218	188.04092	782.10852	-27.04291	-159.85008	1324.3522	-106.854	-218.46452	1201.8558	-98.669807	-244.94002	988.64063	-153.64813	-211.24503	862.14349	-55.765495	-192.4884	764.07819	-36.873337	-248.50568	768.30194	-86.455643	-217.59331	690.03412	-40.969044	133.43677	894.35181	-59.911076	-156.02399	910.90149	-55.972652	40.209534	929.26843	-242.53619	-47.332783	929.74945	-245.5163
2656	26.55	47.408936	1527.4049	-12.72828	-97.759308	1532.3904	-35.236507	66.682663	1526.6096	-149.84985	-84.199219	1525.6427	-168.78432	-30.01651	1348.4045	-199.50957	1.3595839	1139.0981	-251.30695	-13.857895	1239.3301	-20.188951	0.21235764	1084.8453	12.435217	-106.33337	1264.037	-234.06552	115.11768	1381.2412	-130.24954	188.51892	1182.467	-87.205917	247.85484	1073.9221	-137.52248	210.68117	1020.2294	-60.721565	151.97029	860.81769	-29.888605	223.68922	849.21289	-49.228897	188.29112	779.28339	-26.127506	-159.72404	1324.1267	-106.76273	-218.44164	1201.6637	-98.651764	-244.88994	988.47278	-153.67894	-211.33481	861.95538	-55.897182	-192.6221	763.92395	-37.132439	-248.62589	768.10974	-86.557335	-217.72118	689.80408	-41.136311	133.24118	893.93408	-59.610977	-156.28989	910.77747	-56.12923	40.331192	929.2287	-242.30869	-47.261436	929.75024	-245.38829
